:SAMPLES-PER-SECOND 30
:FULLY-SPECIFIED
:DEGREES
33
root  77.1281 40.1682 -3.53701 -174.682 -86.3956 174.172
RightUpLeg  -0.439289 -9.14288 -5.41906
RightLeg  9.52095 -6.32673 0.938427
RightFoot  -8.29505 -0.0603928 0.156075
RightToes  3.49245e-010 0 -3.6325e-017
Spine  3.51712 -0.517489 0.215209
Spine1  8.61517 -1.31942 2.73319
HEad  -10.1155 5.17922 -7.02676
LeftShoulder1  8.45747 -11.7062 -48.5377
LeftArm  -14.7867 14.0944 -36.8051
LeftForeArm  19.6428 -9.08749 -4.49046
LeftHand  -0.244104 0.0205437 5.32207
RightShoulder  5.69621 8.61641 40.803
RightArm  -13.9173 -17.2197 39.1858
RightForeArm  -17.2149 13.0867 7.05972
RightHand  -0.739758 0.469658 -14.9715
LeftUpLeg  0.753058 7.42934 5.02809
LeftLeg  7.16829 16.218 -2.42149
LeftFoot  -7.71507 0.170395 -3.91736
LeftToes  1.68253e-010 -2.29257e-011 3.59052e-011
34
root  76.8719 40.1187 -3.61204 -174.642 -85.9658 174.17
RightUpLeg  -0.477365 -9.24948 -5.30261
RightLeg  10.3524 -5.72883 0.67193
RightFoot  -9.55563 -0.0703198 0.379901
RightToes  3.49245e-010 0 -3.6325e-017
Spine  2.89467 -0.828838 -0.0115881
Spine1  9.62996 -1.78384 3.13801
HEad  -10.9773 6.23336 -7.60535
LeftShoulder1  8.3476 -11.6269 -48.1485
LeftArm  -12.283 14.9505 -34.7961
LeftForeArm  19.2007 -12.7893 -4.80248
LeftHand  -0.244104 0.0205437 5.32207
RightShoulder  5.35515 8.27317 39.3685
RightArm  -12.2126 -18.0717 38.6531
RightForeArm  -12.8819 15.2644 6.44542
RightHand  -0.661341 -0.0121802 -13.9714
LeftUpLeg  0.96127 7.75525 5.06564
LeftLeg  7.73248 16.0959 -2.06507
LeftFoot  -8.53403 0.154905 -4.23439
LeftToes  1.68253e-010 -2.29257e-011 3.59052e-011
35
root  76.5513 40.0877 -3.71773 -174.765 -85.607 174.61
RightUpLeg  -0.309858 -9.25913 -5.24913
RightLeg  10.5028 -5.44641 0.687564
RightFoot  -10.7723 -0.0774598 0.930704
RightToes  3.49245e-010 0 -3.6325e-017
Spine  1.5166 -1.21829 0.35644
Spine1  11.1652 -2.13182 2.72751
HEad  -11.868 7.26047 -7.64274
LeftShoulder1  7.98938 -11.3433 -46.9438
LeftArm  -6.80286 15.287 -32.6545
LeftForeArm  20.422 -17.7908 -4.48907
LeftHand  -0.244104 0.0205437 5.32207
RightShoulder  5.31083 8.45311 38.3589
RightArm  -3.13419 -18.8761 36.6459
RightForeArm  -4.69009 19.2146 5.63461
RightHand  -0.243009 -2.39562 -9.25195
LeftUpLeg  1.08466 7.9454 5.17675
LeftLeg  8.08444 16.0466 -1.78327
LeftFoot  -9.34448 0.139174 -4.78305
LeftToes  1.68253e-010 -2.29257e-011 3.59052e-011
36
root  76.1782 40.0635 -3.85429 -176.013 -85.1965 176.225
RightUpLeg  0.0242278 -9.18321 -5.09116
RightLeg  10.3735 -5.29066 0.778649
RightFoot  -11.9007 -0.0741143 1.39241
RightToes  3.49245e-010 0 -3.6325e-017
Spine  0.0792569 -1.39353 1.02604
Spine1  12.7758 -2.20902 2.11312
HEad  -13.0473 8.1722 -7.20935
LeftShoulder1  7.72845 -11.167 -45.9311
LeftArm  -3.67543 15.1876 -31.3828
LeftForeArm  23.6407 -22.7964 -3.80013
LeftHand  -0.244104 0.0205437 5.32207
RightShoulder  5.49418 8.96867 38.0056
RightArm  6.61083 -20.365 33.9401
RightForeArm  -3.46603 25.1583 5.46098
RightHand  -0.137472 -3.38105 -7.38203
LeftUpLeg  1.39468 8.03284 5.46397
LeftLeg  8.21633 16.2119 -1.62994
LeftFoot  -10.2189 0.114987 -5.49177
LeftToes  1.68253e-010 -2.29257e-011 3.59052e-011
37
root  75.755 40.0217 -4.0251 -177.595 -84.7341 178.147
RightUpLeg  0.359127 -9.11305 -4.79621
RightLeg  10.3901 -5.09573 0.81264
RightFoot  -12.9541 -0.0671795 1.47608
RightToes  3.49245e-010 0 -3.6325e-017
Spine  -0.723491 -1.27942 1.53147
Spine1  13.5834 -2.08644 1.94518
HEad  -13.1389 8.67702 -7.81724
LeftShoulder1  7.69831 -11.2374 -45.5192
LeftArm  -5.22955 15.4419 -30.5479
LeftForeArm  28.02 -27.463 -4.37807
LeftHand  -0.244104 0.0205437 5.32207
RightShoulder  5.5627 9.21479 37.7036
RightArm  8.55773 -22.9907 31.6115
RightForeArm  -6.55186 32.3159 7.50155
RightHand  -0.169468 -3.55854 -9.67893
LeftUpLeg  1.91606 8.13127 5.8951
LeftLeg  8.16306 16.3936 -1.62009
LeftFoot  -10.9338 0.0874182 -6.10053
LeftToes  1.68253e-010 -2.29257e-011 3.59052e-011
38
root  75.2856 39.9594 -4.23737 -177.82 -84.3525 178.648
RightUpLeg  0.797371 -9.08057 -4.54934
RightLeg  10.5099 -4.85662 0.776949
RightFoot  -13.9205 -0.0600594 1.51203
RightToes  3.49245e-010 0 -3.6325e-017
Spine  -0.797808 -1.11618 1.69497
Spine1  13.4389 -1.95395 2.03917
HEad  -12.8477 8.3237 -8.27729
LeftShoulder1  7.78649 -11.4297 -45.4465
LeftArm  -7.13897 16.3877 -29.6383
LeftForeArm  30.561 -32.9068 -5.5324
LeftHand  -0.244104 0.0205437 5.32207
RightShoulder  5.36318 9.00487 36.8679
RightArm  5.97385 -26.0562 31.4075
RightForeArm  -9.32565 39.5568 9.80841
RightHand  -0.256614 -3.09572 -12.5677
LeftUpLeg  2.49149 8.24325 6.27366
LeftLeg  8.20957 16.4654 -1.55783
LeftFoot  -11.3872 0.0658284 -6.51543
LeftToes  1.68253e-010 -2.29257e-011 3.59052e-011
39
root  74.7979 39.8695 -4.49326 -176.121 -83.9931 177.145
RightUpLeg  1.12601 -9.19941 -4.46071
RightLeg  11.0954 -4.37956 0.579397
RightFoot  -14.8773 -0.0449247 1.79945
RightToes  3.49245e-010 0 -3.6325e-017
Spine  -0.519305 -1.16329 1.7691
Spine1  13.0148 -1.86231 1.61195
HEad  -12.9111 8.57262 -8.62158
LeftShoulder1  7.81736 -11.5478 -45.2627
LeftArm  -8.49167 17.6408 -28.4839
LeftForeArm  33.5412 -39.968 -7.26147
LeftHand  -0.244104 0.0205437 5.32207
RightShoulder  5.0792 8.67771 35.7217
RightArm  0.586291 -28.066 34.3207
RightForeArm  -8.47477 45.5692 11.9796
RightHand  -0.256193 -3.31629 -13.8397
LeftUpLeg  2.9166 8.72928 6.49709
LeftLeg  8.81126 16.2486 -1.21388
LeftFoot  -12.0508 0.0281512 -7.07278
LeftToes  1.68253e-010 -2.29257e-011 3.59052e-011
40
root  74.3462 39.6956 -4.78141 -174.302 -83.6024 175.527
RightUpLeg  0.557059 -9.74467 -4.25621
RightLeg  13.2814 -3.5208 0.0298589
RightFoot  -16.0801 -0.0284035 1.95257
RightToes  3.49245e-010 0 -3.6325e-017
Spine  0.128278 -1.45626 1.94895
Spine1  12.5361 -1.84953 0.734209
HEad  -13.4577 9.76706 -8.8496
LeftShoulder1  7.7818 -11.5613 -45.0069
LeftArm  -9.32403 18.6905 -27.0839
LeftForeArm  37.6703 -48.2179 -9.77632
LeftHand  -0.244104 0.0205437 5.32207
RightShoulder  4.90872 8.51799 34.8747
RightArm  -5.74597 -28.0757 39.6077
RightForeArm  -6.85737 50.5588 14.1837
RightHand  -0.163975 -4.21955 -15.0734
LeftUpLeg  2.65783 11.1895 6.74879
LeftLeg  10.7937 14.0516 -0.1746
LeftFoot  -13.5158 -0.0771828 -8.21826
LeftToes  1.68253e-010 -2.29257e-011 3.59052e-011
41
root  73.9762 39.3567 -5.0782 -175.745 -83.7117 177.17
RightUpLeg  -1.11284 -10.688 -3.44539
RightLeg  17.5175 -2.96566 -0.883955
RightFoot  -17.7523 -0.0345393 1.54518
RightToes  3.49245e-010 0 -3.6325e-017
Spine  1.68703 -1.93689 2.17862
Spine1  11.6995 -2.15744 0.567669
HEad  -14.5078 11.4799 -9.03031
LeftShoulder1  7.82494 -11.6147 -45.1
LeftArm  -9.4861 19.0097 -25.5163
LeftForeArm  41.0802 -56.2426 -13.2584
LeftHand  -0.244104 0.0205437 5.32207
RightShoulder  4.91584 8.56416 34.7782
RightArm  -10.303 -26.3614 44.4838
RightForeArm  -3.79913 56.6466 17.6984
RightHand  -0.0709693 -4.97481 -16.5127
LeftUpLeg  0.675666 15.2404 7.17783
LeftLeg  15.6898 9.35074 2.10804
LeftFoot  -15.7062 -0.279111 -9.75
LeftToes  1.68253e-010 -2.29257e-011 3.59052e-011
42
root  73.6873 38.8379 -5.35176 174.709 -84.9617 -173.317
RightUpLeg  -2.92456 -11.6587 -1.95957
RightLeg  22.7841 -3.6083 -1.93571
RightFoot  -19.9466 -0.060692 0.985701
RightToes  3.49245e-010 0 -3.6325e-017
Spine  4.51431 -2.61616 2.75311
Spine1  10.5117 -2.89293 1.48697
HEad  -16.3322 12.39 -9.17896
LeftShoulder1  7.95319 -11.7728 -45.3764
LeftArm  -9.08501 18.2234 -24.4015
LeftForeArm  43.7004 -63.4194 -18.1948
LeftHand  -0.244104 0.0205437 5.32207
RightShoulder  5.17261 8.85574 35.8671
RightArm  -10.3866 -23.4416 45.9501
RightForeArm  5.47152 65.197 25.3233
RightHand  0.100474 -6.28729 -15.8065
LeftUpLeg  -3.57389 13.2996 7.83359
LeftLeg  24.6222 8.95547 4.97846
LeftFoot  -17.6471 -0.472479 -10.5122
LeftToes  1.68253e-010 -2.29257e-011 3.59052e-011
